<?xml version="1.0" encoding="UTF-8"?>
<svg width="60px" height="60px" viewBox="0 0 60 60" version="1.1" xmlns="http://www.w3.org/2000/svg" xmlns:xlink="http://www.w3.org/1999/xlink">
    <title>business-icon</title>
    <g id="business-icon" stroke="none" stroke-width="1" fill="none" fill-rule="evenodd">
        <g id="business-copy" transform="translate(3.000000, 6.000000)">
            <path d="M49.6885007,16.5019884 C49.6885007,18.0012689 48.2597432,19.220196 46.503801,19.220196 C44.7470944,19.220196 43.3183369,18.0012689 43.3183369,16.5019884 L43.3183369,13.783019 L49.6885007,13.783019 L49.6885007,16.5019884 Z M24.6665157,40.9978537 L24.6259998,23.9549663 L8.59700732,23.9938196 L8.63752318,41.0435634 L3.94379875,41.0915587 L3.86658928,20.9830695 C4.2610456,21.0722035 4.67155537,21.1247698 5.0965897,21.1247698 C6.80207817,21.1247698 8.31186738,20.3576075 9.23685216,19.1866756 C10.1626014,20.3576075 11.6723906,21.1247698 13.3778791,21.1247698 C15.0833675,21.1247698 16.5931568,20.3576075 17.5181415,19.1866756 C18.4438908,20.3576075 19.95368,21.1247698 21.6591684,21.1247698 C23.3646569,21.1247698 24.8744461,20.3576075 25.8001954,19.1866756 C26.7251801,20.3576075 28.2349694,21.1247698 29.9404578,21.1247698 C31.6459463,21.1247698 33.1557355,20.3576075 34.0814847,19.1866756 C35.0064695,20.3576075 36.5162587,21.1247698 38.2217472,21.1247698 C39.9272357,21.1247698 41.4370249,20.3576075 42.3627741,19.1859137 C43.2197228,20.2707589 44.5796798,21.0005916 46.1307493,21.1042004 L46.2033821,39.2304093 C46.2056654,40.1979327 45.420575,40.9849026 44.4497232,40.9871881 L24.6665157,40.9978537 Z M1.91112558,13.783019 L8.28128937,13.783019 L8.28128937,16.5019884 C8.28128937,18.0012689 6.85253189,19.220196 5.0965897,19.220196 C3.33988307,19.220196 1.91112558,18.0012689 1.91112558,16.5019884 L1.91112558,13.783019 Z M16.5625787,13.783019 L16.5625787,16.5019884 C16.5625787,18.0012689 15.1338213,19.220196 13.3778791,19.220196 C11.6211724,19.220196 10.192415,18.0012689 10.192415,16.5019884 L10.192415,13.783019 L16.5625787,13.783019 Z M24.8446326,13.783019 L24.8446326,16.5019884 C24.8446326,18.0012689 23.4158751,19.220196 21.6599329,19.220196 C19.9032263,19.220196 18.4744688,18.0012689 18.4744688,16.5019884 L18.4744688,13.783019 L24.8446326,13.783019 Z M33.1259219,13.783019 L33.1259219,16.5019884 C33.1259219,18.0012689 31.6971645,19.220196 29.9412223,19.220196 C28.1845156,19.220196 26.7557582,18.0012689 26.7557582,16.5019884 L26.7557582,13.783019 L33.1259219,13.783019 Z M41.4072113,13.783019 L41.4072113,16.5019884 C41.4072113,18.0012689 39.9784538,19.220196 38.2225116,19.220196 C36.465805,19.220196 35.0370475,18.0012689 35.0370475,16.5019884 L35.0370475,13.783019 L41.4072113,13.783019 Z M6.21574484,1.90457371 L45.3838814,1.90457371 L49.2504707,11.8784453 L2.34915557,11.8784453 L6.21574484,1.90457371 Z M49.3299735,0.609463587 C49.1877858,0.242261776 48.8338453,0 48.4386246,0 L46.0397797,0 L5.55984654,0 C5.16539022,0 4.81144977,0.242261776 4.66849757,0.609463587 L0.0642138196,12.4871471 C0.0252268577,12.5869467 0.0114667535,12.6913174 0.00764450233,12.7949262 C0.00713486884,12.8035602 0.0045867014,14.0392477 0,16.5019884 C0,17.9761285 0.767508034,19.2887607 1.9569926,20.1359151 L2.03573097,42.5542713 C2.03649542,42.8011041 2.23907473,43.0014652 2.48675661,43 L10.5532355,42.9694684 L10.5532355,42.9588028 L10.5532355,42.9420425 L10.5127196,25.8930605 L22.7194609,25.864111 L22.7599768,42.9077602 L46.1605629,42.8879526 C48.6350883,42.886429 50.6387123,40.8835792 50.6318323,38.4175372 L50.5744985,20.8642241 C52.5651269,20.2341911 54,18.5193129 54,16.5019884 L54,15.9085233 C54,13.7494985 53.6032503,11.6323744 52.8227466,9.61581174 L49.3299735,0.609463587 Z" id="Fill-1" fill="#1F1C4F"></path>
            <path d="M30.9440124,33.1523784 L41.0559876,33.1523784 L41.0559876,25.8476216 L30.9440124,25.8476216 L30.9440124,33.1523784 Z M29,35 L43,35 L43,24 L29,24 L29,35 Z" id="Fill-4" fill="#1F1C4F"></path>
            <polygon id="Fill-6" fill="#DA1710" points="10.0420436 43.3775429 20 48 20 30.690977 10 26"></polygon>
        </g>
    </g>
</svg>