<?xml version="1.0" encoding="utf-8"?>
<!-- Generator: Adobe Illustrator 24.1.0, SVG Export Plug-In . SVG Version: 6.00 Build 0)  -->
<svg version="1.1" id="Layer_1" focusable="false" xmlns="http://www.w3.org/2000/svg" xmlns:xlink="http://www.w3.org/1999/xlink"
	 x="0px" y="0px" viewBox="0 0 78 78" style="enable-background:new 0 0 78 78;" xml:space="preserve">
<style type="text/css">
	.st0{fill-rule:evenodd;clip-rule:evenodd;fill:#1F1C4F;}
	.st1{fill-rule:evenodd;clip-rule:evenodd;fill:#DA1710;}
</style>
<g>
	<path class="st0" d="M70.6,32.5h-5.2c0,0,0-0.1,0-0.1c0-4-3.2-7.2-7.2-7.2c-4,0-7.2,3.2-7.2,7.2c0,0,0,0.1,0,0.1H23.5
		c0,0,0-0.1,0-0.1c0-4-3.2-7.2-7.2-7.2c-4,0-7.2,3.2-7.2,7.2c0,0,0,0.1,0,0.1H5.6v-5.8c0-3.2,2-6.1,5-7.2c0.8-0.3,2.8-0.7,6.2-1.3
		c1.6-0.3,3.2-1,4.5-2.1c1.5-1.2,3.9-2.9,6.6-4.5C34.3,8,38.9,6.3,46,6.5c0.1,0,5.5-0.1,8.6,0.2c8.7,0.9,14.9,5.6,16.9,13.1
		c0.9,3.4,0.6,9.1-0.7,12.4C70.7,32.2,70.6,32.5,70.6,32.5z M53.5,32.4c0-2.6,2.1-4.7,4.7-4.7c2.6,0,4.7,2.1,4.7,4.7
		c0,2.6-2.1,4.7-4.7,4.7C55.6,37.1,53.5,35,53.5,32.4L53.5,32.4z M11.5,32.4c0-2.6,2.1-4.7,4.7-4.7c2.6,0,4.7,2.1,4.7,4.7
		c0,2.6-2.1,4.7-4.7,4.7C13.7,37.1,11.5,35,11.5,32.4L11.5,32.4z M75.2,19.7c-1.4-5.6-7.8-12-15.2-14.2c-2-0.7-4.1-1.1-6.2-1.3
		C50.5,3.9,47.5,4,44.9,4c-7.7,0-11.5,1.6-18.4,5.5c-2.9,1.6-5.4,3.4-7,4.7c-1,0.8-2.2,1.3-3.5,1.6c-3.6,0.7-5.7,1.1-6.3,1.3
		c-0.8,0.3-2.8,1.1-4.4,3C3.9,21.8,3,24.2,3,26.6v7.1c0,0.7,0.5,1,0.9,1.2c0.9,0.4,2.3,0.6,2.7,0.6h3.2c0.2,0.4,0.4,0.8,0.7,1.1
		c1.7,2.6,5.3,4.4,8.3,4.4c3.4,0,6.2-2.3,7-5.5h25.1c0.1,0.2,0.2,0.3,0.3,0.5c1.4,2.9,5.5,5,8.7,5c3.4,0,6.2-2.3,7-5.5h6.1
		c0.5,0,1-0.3,1.2-0.8l0.5-1.3C76.1,29.2,76.2,24.3,75.2,19.7L75.2,19.7z"/>
	<path class="st1" d="M45.8,9.5l0.5,7.9l-22.7,1.6c-0.3,0-1.1-0.2,0-1l0.5-0.4c1.4-1,3.3-2.3,5.5-3.5C35.5,10.9,39.6,9.4,45.8,9.5z
		 M53.8,9.7c5.5,0.5,9.9,2.7,12.6,6.3l-17.1,1.2l-0.5-7.7C51.4,9.5,53.1,9.6,53.8,9.7L53.8,9.7z"/>
</g>
</svg>
