<?xml version="1.0" encoding="UTF-8"?>
<svg width="60px" height="60px" viewBox="0 0 60 60" version="1.1" xmlns="http://www.w3.org/2000/svg" xmlns:xlink="http://www.w3.org/1999/xlink">
    <title>home-loan-icon</title>
    <g id="home-loan-icon" stroke="none" stroke-width="1" fill="none" fill-rule="evenodd">
        <g id="house-copy" transform="translate(3.000000, 6.000000)">
            <polygon id="Fill-1" fill="#DA1710" points="18.0026914 43.5642744 29 48 29 31.4777508 18 27"></polygon>
            <path d="M40.6574769,21.3232989 L40.6574769,40.5248729 C40.6574769,41.4410887 39.9159857,42.1841613 39.0017197,42.1841613 L33.3296716,42.1848828 L33.3296716,26.045778 L16.8124142,26.045778 L16.8124142,42.1913756 L9.48244924,42.1928185 L9.48244924,21.3232989 L4.61308341,21.3232989 L25.070323,2.45069684 L45.5297223,21.3232989 L40.6574769,21.3232989 Z M28.9282372,0 L25.070323,0 L0,23.1268733 L7.6827132,23.1268733 L7.6827132,43.9971143 L18.6121502,44 L18.6121502,27.8493524 L31.5299356,27.8493524 L31.5299356,44 L41.6422925,44 C44.2231139,43.9992786 46.3151271,41.8905394 46.3151271,39.3034924 L46.3151271,23.1268733 L54,23.1268733 L28.9282372,0 Z" id="Fill-2" fill="#1F1C4F"></path>
        </g>
    </g>
</svg>